<svg width="668" height="600" viewBox="0 0 668 600" fill="none" xmlns="http://www.w3.org/2000/svg">
<path d="M34 200H634M334 200V566.667M140.667 566.667H527.333C564.67 566.667 583.34 566.667 597.6 559.4C610.143 553.01 620.343 542.81 626.733 530.267C634 516.007 634 497.337 634 460V140C634 102.663 634 83.9947 626.733 69.734C620.343 57.1897 610.143 46.991 597.6 40.5997C583.34 33.3333 564.67 33.3333 527.333 33.3333H140.667C103.33 33.3333 84.6613 33.3333 70.4007 40.5997C57.8563 46.991 47.6577 57.1897 41.2663 69.734C34 83.9947 34 102.663 34 140V460C34 497.337 34 516.007 41.2663 530.267C47.6577 542.81 57.8563 553.01 70.4007 559.4C84.6613 566.667 103.33 566.667 140.667 566.667Z" stroke="#0053F3" stroke-width="66.6667" stroke-linecap="round" stroke-linejoin="round"/>
</svg>
